<svg xmlns="http://www.w3.org/2000/svg" viewBox="0 0 240.243 24.562" fill="#003478"><path d="M3.663 10.303L.1 10.7l.128-4 11.56-1.2-.17 3.998-3.588.364L7.508 23.9l-4.312.46.467-14.068zm10.457-5.05l4.338-.412-.313 6.676 3.045-.282.33-6.675 4.34-.383-.97 18.05-4.27.387.35-7.067-3.034.282-.33 7.068-4.267.416.778-18.06zm14.932-1.348l9.74-.77-.268 3.993-5.378.416-.178 2.994 5.12-.4-.26 3.97-5.103.4-.205 3.2 5.33-.42-.237 3.895-9.582.778 1.023-18.05zm14.932 10.917l-3.62-11.8 4.6-.325 1.612 6.306 2.612-6.588 4.543-.286-5.454 12.546-.417 5.765-4.275.296.4-5.913zM60 1.764l4.594-.243c4.988-.254 6.365 1.895 6.508 5.056.05 1.134-.035 2.468-.188 3.95-.522 5.68-1.35 8.66-6.4 8.92l-6.042.33 1.53-18.013zm4.224 13.997c1.674-.087 1.872-.92 2.27-5.194.146-1.507.215-2.598.177-3.37-.07-1.424-.56-1.884-2.15-1.803l-.515.026-.922 10.4 1.14-.06zm8.608-2.177c-.05-1.158.062-2.47.195-3.9.5-5.124 1.5-8.878 6.87-9.076C84.26.446 85.742 2.968 85.838 6c.037 1.16-.116 2.493-.265 3.924-.567 5.142-1.607 8.8-6.804 9-4.304.166-5.795-2.348-5.926-5.34zm8.313-3.644c.166-1.48.25-2.57.222-3.344-.05-1.376-.484-1.893-1.684-1.848-1.494.056-1.83.94-2.252 5.1-.137 1.48-.24 2.548-.2 3.32.055 1.376.487 1.866 1.725 1.82 1.43-.055 1.763-.888 2.2-5.037zm8.08-9.397l4.45-.118 1.52 5.062.673 2.666.93-7.8 4.057-.08-2.195 17.944-3.846.085-1.844-5.898-.778-2.808-1.005 8.798-3.967.115L89.235.543zm13.86 6.795c1.695-1.04 1.913-1.212 2.023-2.156l-1.86.028.634-4.986 4.623-.06-.632 4.814c-.223 1.814-.802 2.832-3.754 4.398l-1.033-2.037zM113.68 4.08l-3.577.028.528-3.966 11.607-.044-.57 3.96a1081.5 1081.5 0 0 0-3.602.002l-1.928 13.943-4.33.027 1.87-13.95zM128.93.128l4.353.04-2.153 14 4.93.06-.587 3.857-9.193-.087 2.65-17.88zm15 .167l4.77.1 1.3 17.988-4.475-.112-.12-2.128-3.466-.074-.767 2.1-4.282-.073 7.04-17.82zm1.275 12.156l-.1-2.708-.07-2.37-.784 2.326-.983 2.7 1.946.042zm6.145 4.892l2.287-3.485c.645.382 1.818.926 3.128.97 1.14.038 1.523-.456 1.555-1.397.023-.652-.323-1.15-2.048-2.85-1.394-1.375-2.427-2.76-2.364-4.836.088-2.897 1.785-5.317 6.014-5.167 1.967.07 2.896.276 4.324.864l-1.92 3.865c-.577-.288-1.547-.614-2.65-.653-.783-.028-1.313.4-1.34 1.16-.023.676.473 1.253 1.818 2.602 1.575 1.58 2.596 3.022 2.515 5.122-.1 2.873-1.586 5.32-6.083 5.172-2.708-.1-4.308-.836-5.238-1.37zm17.924-12.207l-3.575-.153.728-3.935 11.598.544-.768 3.927-3.6-.18-2.632 13.828-4.327-.193 2.575-13.838zM184.7 1.962l4.347.262-2.86 13.884 4.922.308-.782 3.823-9.18-.552 3.554-17.725zm8.503 12.995c.077-1.157.334-2.447.624-3.856 1.072-5.036 2.48-8.657 7.832-8.263 4.345.32 5.54 3 5.302 6.025-.1 1.156-.4 2.465-.697 3.87-1.13 5.048-2.568 8.558-7.758 8.184-4.298-.3-5.503-2.973-5.303-5.96zm8.668-2.705c.328-1.453.532-2.528.6-3.3.103-1.373-.273-1.935-1.47-2.022-1.492-.1-1.923.732-2.8 4.8-.3 1.456-.52 2.506-.574 3.276-.097 1.374.278 1.9 1.515 1.998 1.43.103 1.85-.688 2.743-4.763zm9.07-8.447l4.44.374.953 5.2.375 2.724 1.786-7.65 4.045.368-4.163 17.592-3.836-.34-1.184-6.065-.465-2.876-1.97 8.633-3.958-.324 3.977-17.635zm11.443 13.76c.1-1.178.386-2.56.757-4.15 1.268-5.388 2.682-8.518 8.05-7.977 2.402.242 3.664.715 4.503 1.216l-2.223 3.557c-.654-.36-1.564-.623-2.7-.738-1.733-.175-2.275.236-3.372 4.714-.393 1.605-.662 2.75-.742 3.568-.127 1.297.182 1.885 1.32 1.998 1.16.115 1.572-.57 2.003-2.422l.257-1.1-1.965-.197.9-3.625 5.867.6L234 17.1c-1.334 5.252-2.455 6.707-6.6 6.297-4.242-.42-5.313-2.478-5-5.82zm13.198 1.587l4.55.493-1.24 4.82-4.53-.487 1.22-4.826z"/></svg>